<?xml version="1.0" encoding="UTF-8" standalone="no"?>
<!-- Created with Inkscape (http://www.inkscape.org/) -->

<svg
   xmlns:dc="http://purl.org/dc/elements/1.1/"
   xmlns:cc="http://creativecommons.org/ns#"
   xmlns:rdf="http://www.w3.org/1999/02/22-rdf-syntax-ns#"
   xmlns:svg="http://www.w3.org/2000/svg"
   xmlns="http://www.w3.org/2000/svg"
   xmlns:sodipodi="http://sodipodi.sourceforge.net/DTD/sodipodi-0.dtd"
   xmlns:inkscape="http://www.inkscape.org/namespaces/inkscape"
   width="210mm"
   height="297mm"
   viewBox="0 0 210 297"
   version="1.1"
   id="svg8"
   inkscape:version="0.92.3 (2405546, 2018-03-11)"
   sodipodi:docname="drawing-1.svg">
  <defs
     id="defs2" />
  <sodipodi:namedview
     id="base"
     pagecolor="#ffffff"
     bordercolor="#666666"
     borderopacity="1.0"
     inkscape:pageopacity="0.0"
     inkscape:pageshadow="2"
     inkscape:zoom="0.49497475"
     inkscape:cx="901.29436"
     inkscape:cy="526.40375"
     inkscape:document-units="mm"
     inkscape:current-layer="layer1"
     showgrid="false"
     inkscape:window-width="1366"
     inkscape:window-height="715"
     inkscape:window-x="0"
     inkscape:window-y="25"
     inkscape:window-maximized="1" />
  <metadata
     id="metadata5">
    <rdf:RDF>
      <cc:Work
         rdf:about="">
        <dc:format>image/svg+xml</dc:format>
        <dc:type
           rdf:resource="http://purl.org/dc/dcmitype/StillImage" />
        <dc:title></dc:title>
      </cc:Work>
    </rdf:RDF>
  </metadata>
  <g
     inkscape:label="Layer 1"
     inkscape:groupmode="layer"
     id="layer1">
    <path
       style="fill:none;stroke:#000000;stroke-width:0.26458332px;stroke-linecap:butt;stroke-linejoin:miter;stroke-opacity:1"
       d="m 94.494047,208.55357 c 10.362693,-2.93893 18.903243,-7.88223 25.702383,-14.74107 8.33601,-9.53107 15.46412,-19.81706 18.14285,-32.88393 1.75796,3.22836 3.11941,3.28461 4.53572,3.77976 4.76742,-2.33283 7.92752,-6.96182 10.20536,-12.85119 2.45906,-6.00773 1.80505,-11.73245 0.37797,-17.3869 2.76964,-9.61765 -6.96626,-8.72973 -6.42559,-5.66965 -3.05793,1.66602 -3.93669,6.13384 -4.53572,10.96131 -5.4594,-6.58769 -2.40832,-16.82274 -3.40178,-25.3244 C 134.68552,77.012113 130.27579,80.593446 125.86607,75.505952 117.7868,66.938707 106.79962,75.645663 97.13988,77.193413 90.840277,73.886957 84.540675,72.687434 78.241072,73.61607 66.812191,78.547959 62.847348,87.211868 56.696427,94.782737 c -1.691528,7.937503 -0.715052,15.875003 0,23.812503 -0.334175,6.84737 -1.226644,13.13645 -2.267855,19.27678 0.06727,6.18749 2.266901,8.82104 3.401785,13.22917 -1.300622,6.67813 1.357057,15.05268 2.267857,22.67857 9.90308,20.18336 20.940088,34.13011 34.395833,34.77381 z"
       id="path21"
       inkscape:connector-curvature="0"
       sodipodi:nodetypes="cccccccccccccccccc" />
    <path
       style="fill:none;stroke:#000000;stroke-width:0.26458332px;stroke-linecap:butt;stroke-linejoin:miter;stroke-opacity:1"
       d="m 138.33928,160.92857 c -0.19555,5.22535 -1.83242,11.71877 0.70769,12.192 10.52332,6.91743 10.44506,-7.80199 15.43481,-11.62622 4.3654,-11.75986 15.87527,-29.77113 13.09621,-35.27958 -2.46859,-14.16196 -3.61272,-19.05278 -5.07812,-26.19241 C 159.20355,90.489746 159.46859,83.727082 152.6109,71.424519 143.86775,65.899001 141.48591,57.801273 133.36749,55.388345 115.91201,49.762198 108.13035,50.065168 101.56242,51.112033 86.526787,50.183427 74.87661,54.967778 62.54107,58.595579 48.801618,76.695016 47.646943,85.874741 48.910324,93.34062 c 1.747439,10.50303 -2.653522,17.56015 2.939963,28.33057 0.607172,1.67625 1.800919,3.93907 4.009043,7.21627"
       id="path25"
       inkscape:connector-curvature="0"
       sodipodi:nodetypes="cccccccccccc" />
    <path
       style="fill:none;stroke:#000000;stroke-width:0.26458332px;stroke-linecap:butt;stroke-linejoin:miter;stroke-opacity:1"
       d="m 86.060787,122.60663 c -0.658478,-1.37487 1.435197,-2.44394 -2.138156,-4.14268 -9.24983,-0.89176 -16.719111,-0.48858 -22.049737,1.46999 -0.557348,0.70131 -0.689284,1.61533 -0.534538,2.67269 8.716727,-0.86666 15.428379,-0.39661 22.049734,0.13364 5.579252,1.11501 2.739512,5.38715 3.207235,8.41899 -1.158168,3.64453 -2.316335,5.26578 -3.474503,10.95805 -0.524451,2.92315 -1.291865,6.25123 -0.80181,7.48354 -2.498857,-0.1635 -3.411272,2.44927 -4.543581,4.67722 -0.222199,2.86485 0.810973,3.63741 1.603619,4.81085 1.648167,-0.4009 2.22724,-0.97999 1.737251,-1.73725 2.47652,-0.39942 3.55352,3.32534 7.617182,3.87541 l 4.276313,-3.47451 c 3.913167,-1.297 4.391334,0.41163 5.612659,1.46999 3.466845,-0.25907 2.539395,-1.49466 3.073595,-2.40543 -0.1221,-2.25822 0.51226,-5.17751 -2.93996,-7.88445 -2.475414,-8.41506 -2.057534,-13.41371 -4.009043,-19.24341 0.657207,-2.21922 0.488099,-4.79257 3.474503,-6.01356 6.90299,-2.06572 16.23685,-1.16037 26.32605,0.66817 1.04872,-1.1798 1.07951,-2.69891 -1.06908,-4.94448 -8.59717,-3.20854 -17.19434,-1.2381 -25.791508,-1.60362 -1.457905,1.19807 -2.481601,2.45818 -1.469982,4.00904"
       id="path27"
       inkscape:connector-curvature="0"
       sodipodi:nodetypes="cccccccccccccccccccccc" />
    <path
       style="fill:none;stroke:#000000;stroke-width:0.26458332px;stroke-linecap:butt;stroke-linejoin:miter;stroke-opacity:1"
       d="m 76.572718,174.72419 c 6.21583,-4.68084 8.721598,-1.94156 12.294398,-1.33635 6.204403,-0.60018 11.414814,0.45628 16.570704,1.60362 -3.64944,2.48515 -11.413445,5.65706 -11.759851,5.61266 -13.998842,0.59297 -16.879525,-2.23502 -17.105251,-5.87993 z"
       id="path31"
       inkscape:connector-curvature="0"
       sodipodi:nodetypes="ccccc" />
    <path
       style="fill:none;stroke:#000000;stroke-width:0.26458332px;stroke-linecap:butt;stroke-linejoin:miter;stroke-opacity:1"
       d="m 64.54559,128.75383 c 5.347746,-3.97843 10.913642,-5.12091 16.971616,0.13363 -5.657205,1.05582 -11.314411,1.63182 -16.971616,-0.13363 z"
       id="path33"
       inkscape:connector-curvature="0"
       sodipodi:nodetypes="ccc" />
    <path
       style="fill:none;stroke:#000000;stroke-width:0.26458332px;stroke-linecap:butt;stroke-linejoin:miter;stroke-opacity:1"
       d="m 103.0324,128.88746 c 3.20541,-2.11252 5.16328,-5.93219 14.83346,0.80181 -4.94449,1.51376 -9.88897,1.59777 -14.83346,-0.80181 z"
       id="path35"
       inkscape:connector-curvature="0"
       sodipodi:nodetypes="ccc" />
    <path
       style="fill:none;stroke:#000000;stroke-width:0.26458332px;stroke-linecap:butt;stroke-linejoin:miter;stroke-opacity:1"
       d="m 104.7939,161.40104 c 5.87219,9.86206 5.45336,9.79091 6.89806,12.6622"
       id="path37"
       inkscape:connector-curvature="0"
       sodipodi:nodetypes="cc" />
    <path
       style="fill:none;stroke:#000000;stroke-width:0.26458332px;stroke-linecap:butt;stroke-linejoin:miter;stroke-opacity:1"
       d="m 75.784225,158.8497 c -2.557339,5.76414 -3.800842,11.52827 -4.346726,17.29241"
       id="path39"
       inkscape:connector-curvature="0"
       sodipodi:nodetypes="cc" />
    <path
       style="fill:none;stroke:#000000;stroke-width:0.26458332px;stroke-linecap:butt;stroke-linejoin:miter;stroke-opacity:1"
       d="m 83.249256,203.45089 c 12.860143,4.00135 23.442994,2.48465 29.765624,-9.35491"
       id="path41"
       inkscape:connector-curvature="0"
       sodipodi:nodetypes="cc" />
    <path
       style="fill:none;stroke:#000000;stroke-width:0.26458332px;stroke-linecap:butt;stroke-linejoin:miter;stroke-opacity:1"
       d="m 76.572718,174.72419 c 4.488552,0.14806 6.367555,-0.42611 13.29666,1.5368 -0.287399,-0.86208 9.133566,-1.05288 15.568442,-1.26953"
       id="path45"
       inkscape:connector-curvature="0"
       sodipodi:nodetypes="ccc" />
  </g>
</svg>
